<?xml version="1.0" encoding="utf-8"?>
<!-- Generator: Adobe Illustrator 26.1.0, SVG Export Plug-In . SVG Version: 6.00 Build 0)  -->
<svg version="1.1" id="Layer_1" xmlns="http://www.w3.org/2000/svg" xmlns:xlink="http://www.w3.org/1999/xlink" x="0px" y="0px"
	 viewBox="0 0 2121.9 1191" style="enable-background:new 0 0 2121.9 1191;" xml:space="preserve">
<style type="text/css">
	.st0{fill:url(#SVGID_1_);}
	.st1{opacity:0.24;}
	.st2{fill:none;stroke:#0071BC;stroke-width:25;stroke-linejoin:round;}
	.st3{fill:none;stroke:#0071BC;stroke-width:24.999;stroke-linejoin:round;stroke-miterlimit:3.9998;}
	.st4{fill:#0071BC;}
	.st5{fill:none;}
</style>
<radialGradient id="SVGID_1_" cx="1060.95" cy="1030.223" r="1753.96" gradientTransform="matrix(1 0 0 -0.9948 0 1618.5555)" gradientUnits="userSpaceOnUse">
	<stop  offset="0" style="stop-color:#3FB6FF"/>
	<stop  offset="1" style="stop-color:#06002A"/>
</radialGradient>
<rect class="st0" width="2121.9" height="1191"/>
<g id="FFA_2p">
	<g class="st1">
		<polyline class="st2" points="1078.6,571.8 1020.3,605.1 949.6,482.9 1031.9,435 1037.8,445.1 		"/>
		<polyline class="st2" points="1113.4,561.4 1116.7,580 1022.5,596.9 997.1,457.8 1091.3,440.6 1097.2,472.8 		"/>
		<polyline class="st2" points="1128.3,561 1128.3,591.3 1032.6,591.3 1032.6,450 1128.3,450 1128.3,478.4 		"/>
		
			<rect x="1034" y="486.1" transform="matrix(0.314 -0.9494 0.9494 0.314 251.1144 1415.0847)" class="st3" width="141.7" height="95.3"/>
		<path class="st4" d="M1081.6,451.4l-44.5,134.2l90.4,29.9l44.5-134.2L1081.6,451.4z M1137.3,538.9c-1.5,2.1-3.2,4-5.2,5.6
			c-2.7,2.4-5.7,4.6-9,6.3c-2.6,1.5-5.2,2.6-10.5,5.2c-5.9,2.6-7.5,3.3-11.6,5.2c-4.1,1.9-7.1,3.7-9,4.5c-1.4-3.1-2.8-6-4.5-9
			c-2.3-4.5-3-5.6-5.9-11.2c-2.6-5.2-4.1-7.5-5.2-10.5c-2.3-5.6-3-9.4-3-10.5c-0.7-3-1.1-5.2-0.7-7.9c0.3-4.6,1.9-9,4.5-12.7
			c1.1-1.5,2.3-3.7,4.9-5.9c1.1-0.7,3.3-3,7.1-4.1c2.3-0.7,4.7-1,7.1-0.7c2.6,0.7,5,2,7.1,3.7c1.9,1.5,3.3,3.5,4.5,5.6
			c1.1,2.2,2.2,4.4,3,6.8c2-1.4,4.2-2.4,6.3-3.3c2.3-1,4.6-1.6,7.1-1.9c1.9,0,4.9-0.4,7.9,1.1c2.3,1.1,4.2,2.8,5.6,4.9
			c1.6,2.2,2.8,4.8,3.3,7.5c0.7,2.6,0.8,5.2,0.4,7.9C1141.4,530.3,1139.9,534.9,1137.3,538.9L1137.3,538.9z"/>
		<path class="st5" d="M1141.4,525.8c-0.4,2.6-0.7,7.8-4.1,12.7c-1.5,2.1-3.2,4-5.2,5.6c-2.7,2.4-5.7,4.6-9,6.3
			c-2.6,1.5-5.2,2.6-10.5,5.2c-5.9,2.6-7.5,3.3-11.6,5.2c-4.1,1.9-7.1,3.7-9,4.5c-1.4-3.1-2.8-6-4.5-9c-2.3-4.5-3-5.6-5.9-11.2
			c-2.6-5.2-4.1-7.5-5.2-10.5c-2.3-5.6-3-9.4-3-10.5c-0.7-3-1.1-5.2-0.7-7.9c0.3-4.6,1.9-9,4.5-12.7c1.1-1.5,2.3-3.7,4.9-5.9
			c1.1-0.7,3.3-3,7.1-4.1c2.3-0.7,4.7-1,7.1-0.7c2.6,0.7,5,2,7.1,3.7c1.9,1.5,3.3,3.5,4.5,5.6c1.1,2.2,2.2,4.4,3,6.8
			c2-1.4,4.2-2.4,6.3-3.3c2.3-1,4.6-1.6,7.1-1.9c1.9,0,4.9-0.4,7.9,1.1c2.3,1.1,4.2,2.8,5.6,4.9c1.6,2.2,2.8,4.8,3.3,7.5
			C1141.8,521.8,1141.8,524.4,1141.4,525.8z"/>
	</g>
</g>
</svg>
