<?xml version="1.0" encoding="utf-8"?>
<!-- Generator: Adobe Illustrator 26.1.0, SVG Export Plug-In . SVG Version: 6.00 Build 0)  -->
<svg version="1.1" id="Layer_1" xmlns="http://www.w3.org/2000/svg" xmlns:xlink="http://www.w3.org/1999/xlink" x="0px" y="0px"
	 viewBox="0 0 298.6 247.4" style="enable-background:new 0 0 298.6 247.4;" xml:space="preserve">
<style type="text/css">
	.st0{opacity:0.24;}
	.st1{fill:none;stroke:#0071BC;stroke-width:25;stroke-linejoin:round;}
	.st2{fill:#0071BC;}
	.st3{fill:none;}
</style>
<g id="Layer_2_00000044144898162867653830000004110311373303204996_">
	<g id="Layer_1-2">
		<g id="FFA_2p">
			<g class="st0">
				<polyline class="st1" points="169,175.4 103.8,212.6 24.9,76.1 116.8,22.6 123.5,33.9 				"/>
				<polyline class="st1" points="207.8,163.7 211.6,184.6 106.4,203.4 78,48.1 183.2,28.9 189.9,64.8 				"/>
				<polyline class="st1" points="224.5,163.3 224.5,197.1 117.6,197.1 117.6,39.3 224.5,39.3 224.5,71 				"/>
				
					<rect x="119.2" y="79.7" transform="matrix(0.314 -0.9494 0.9494 0.314 9.8439 279.4683)" class="st1" width="158.2" height="106.5"/>
				<path class="st2" d="M172.3,41l-49.7,149.9l101,33.4l49.7-149.9L172.3,41z M234.5,138.7c-1.6,2.4-3.6,4.5-5.8,6.3
					c-3,2.8-6.4,5.1-10,7.1c-2.9,1.7-5.8,2.9-11.7,5.8c-6.7,2.9-8.4,3.8-12.9,5.8c-4.6,2.1-7.9,4.2-10,5c-1.3-2.5-2.5-5.8-5-10
					c-2.5-5-3.3-6.3-6.7-12.5c-2.9-5.8-4.6-8.3-5.8-11.7c-2.5-6.3-3.3-10.4-3.3-11.7c-0.8-3.3-1.3-5.8-0.8-8.8
					c0.4-5.1,2.1-10,5-14.2c1.3-1.7,2.5-4.2,5.5-6.7c1.3-0.8,3.8-3.3,7.9-4.6c2.6-0.8,5.3-1.1,7.9-0.8c2.9,0.8,5.6,2.2,7.9,4.2
					c2.1,1.7,3.8,3.9,5,6.3c1.3,2.4,2.4,4.9,3.3,7.5c2.2-1.5,4.6-2.8,7.1-3.8c2.5-1.1,5.2-1.8,7.9-2.1c2.1,0,5.5-0.4,8.8,1.3
					c2.5,1.3,4.7,3.1,6.3,5.5c1.8,2.5,3.1,5.3,3.8,8.4c0.7,2.9,0.9,5.8,0.4,8.8C239.1,129,237.5,134.2,234.5,138.7L234.5,138.7z"/>
				<path class="st3" d="M239.1,124.1c-0.4,2.9-0.8,8.8-4.5,14.2c-1.6,2.4-3.6,4.5-5.8,6.3c-3,2.7-6.4,5.1-10,7.1
					c-2.9,1.7-5.8,2.9-11.7,5.8c-6.7,2.9-8.4,3.8-12.9,5.8c-4.6,2.1-7.9,4.2-10,5c-1.3-2.5-2.5-5.8-5-10c-2.5-5-3.3-6.3-6.7-12.5
					c-2.9-5.8-4.6-8.3-5.8-11.7c-2.5-6.3-3.3-10.4-3.3-11.7c-0.8-3.3-1.3-5.8-0.8-8.8c0.4-5.1,2.1-10,4.9-14.2
					c1.3-1.7,2.5-4.2,5.5-6.7c1.3-0.8,3.8-3.3,7.9-4.6c2.6-0.8,5.3-1.1,7.9-0.8c2.9,0.8,5.6,2.2,7.9,4.2c2.1,1.7,3.8,3.9,5,6.3
					c1.3,2.4,2.4,4.9,3.3,7.5c2.2-1.5,4.6-2.8,7.1-3.8c2.5-1.1,5.2-1.8,7.9-2.1c2.1,0,5.5-0.4,8.8,1.3c2.5,1.3,4.7,3.1,6.3,5.5
					c1.8,2.5,3.1,5.3,3.8,8.4C239.5,119.5,239.5,122.4,239.1,124.1z"/>
			</g>
		</g>
	</g>
</g>
</svg>
