<svg xmlns="http://www.w3.org/2000/svg" viewBox="0 0 64.61 53.4"><defs><style>.cls-1,.cls-2,.cls-4{fill:none;}.cls-1,.cls-2,.cls-3{stroke:#fff;stroke-linejoin:round;}.cls-1{stroke-width:5px;}.cls-2{stroke-width:5px;}.cls-3{fill:#fff;stroke-width:0.25px;}</style></defs><g id="Layer_2" data-name="Layer 2"><g id="Layer_1-2" data-name="Layer 1"><g id="ffa"><polyline class="cls-1" points="37 39.1 21.4 48 2.5 15.3 24.5 2.5 26.1 5.2"/><polyline class="cls-1" points="46.3 36.3 47.2 41.3 22 45.8 15.2 8.6 40.4 4 42 12.6"/><polyline class="cls-1" points="50.3 36.2 50.3 44.3 24.7 44.3 24.7 6.5 50.3 6.5 50.3 14.1"/><rect class="cls-2" x="25.1" y="16.16" width="37.9" height="25.5" transform="translate(2.77 61.65) rotate(-71.7)"/><path class="cls-3" d="M37.8,6.9,25.9,42.8l24.2,8L62,14.9ZM52.7,30.3a6.73,6.73,0,0,1-1.4,1.5,10.39,10.39,0,0,1-2.4,1.7c-.7.4-1.4.7-2.8,1.4-1.6.7-2,.9-3.1,1.4s-1.9,1-2.4,1.2l-1.2-2.4c-.6-1.2-.8-1.5-1.6-3a23.37,23.37,0,0,1-1.4-2.8,9,9,0,0,1-.8-2.8,5,5,0,0,1-.2-2.1A7,7,0,0,1,36.6,21a10.1,10.1,0,0,1,1.3-1.6,5.24,5.24,0,0,1,1.9-1.1,4.13,4.13,0,0,1,1.9-.2,4.35,4.35,0,0,1,1.9,1,4.43,4.43,0,0,1,1.2,1.5,14.17,14.17,0,0,1,.8,1.8,5.56,5.56,0,0,1,1.7-.9,5.92,5.92,0,0,1,1.9-.5,3.86,3.86,0,0,1,2.1.3,3.74,3.74,0,0,1,1.5,1.3,7.22,7.22,0,0,1,.9,2,5,5,0,0,1,.1,2.1A6.63,6.63,0,0,1,52.7,30.3Z"/><path class="cls-4" d="M53.8,26.8a8,8,0,0,1-1.1,3.4,6.73,6.73,0,0,1-1.4,1.5,10.39,10.39,0,0,1-2.4,1.7c-.7.4-1.4.7-2.8,1.4-1.6.7-2,.9-3.1,1.4s-1.9,1-2.4,1.2L39.4,35c-.6-1.2-.8-1.5-1.6-3a23.37,23.37,0,0,1-1.4-2.8,9,9,0,0,1-.8-2.8,5,5,0,0,1-.2-2.1,7,7,0,0,1,1.2-3.4,10.1,10.1,0,0,1,1.3-1.6,5.24,5.24,0,0,1,1.9-1.1,4.13,4.13,0,0,1,1.9-.2,4.35,4.35,0,0,1,1.9,1,4.43,4.43,0,0,1,1.2,1.5,14.17,14.17,0,0,1,.8,1.8,5.56,5.56,0,0,1,1.7-.9,5.92,5.92,0,0,1,1.9-.5,3.86,3.86,0,0,1,2.1.3,3.74,3.74,0,0,1,1.5,1.3,7.22,7.22,0,0,1,.9,2A6,6,0,0,1,53.8,26.8Z"/></g></g></g></svg>