<svg xmlns="http://www.w3.org/2000/svg" xmlns:xlink="http://www.w3.org/1999/xlink" viewBox="0 0 55.6 55"><defs><style>.cls-1{fill:none;stroke:#fff;stroke-linecap:round;stroke-miterlimit:10;stroke-width:2px;}.cls-2{fill:#231f20;}.cls-3{fill:url(#radial-gradient);}.cls-4{fill:url(#radial-gradient-2);}.cls-5{fill:#e0dad8;}.cls-6{fill:url(#radial-gradient-3);}</style><radialGradient id="radial-gradient" cx="690.14" cy="-2169.69" r="1.91" gradientTransform="matrix(0.85, -0.87, 0.39, 0.38, 290.62, 1456.07)" gradientUnits="userSpaceOnUse"><stop offset="0" stop-color="#fff"/><stop offset="0.95" stop-color="#231f20"/></radialGradient><radialGradient id="radial-gradient-2" cx="683.56" cy="-2179.72" r="1.92" gradientTransform="matrix(0.85, -0.87, 0.39, 0.38, 288.64, 1442.34)" xlink:href="#radial-gradient"/><radialGradient id="radial-gradient-3" cx="692.64" cy="-2178.23" r="1.92" gradientTransform="matrix(0.85, -0.87, 0.39, 0.38, 292.14, 1449.7)" gradientUnits="userSpaceOnUse"><stop offset="0" stop-color="#fff"/><stop offset="0.95" stop-color="#e0dad8"/></radialGradient></defs><g id="Layer_2" data-name="Layer 2"><g id="Layer_1-2" data-name="Layer 1"><g id="go"><line class="cls-1" x1="1" y1="10.6" x2="54.6" y2="10.6"/><line class="cls-1" x1="1" y1="21.9" x2="54.6" y2="21.9"/><line class="cls-1" x1="1" y1="33.5" x2="54.6" y2="33.5"/><line class="cls-1" x1="1" y1="44.6" x2="54.6" y2="44.6"/><line class="cls-1" x1="11.2" y1="54" x2="11.2" y2="1"/><line class="cls-1" x1="22.5" y1="54" x2="22.5" y2="1"/><line class="cls-1" x1="34.2" y1="54" x2="34.2" y2="1"/><line class="cls-1" x1="45.3" y1="54" x2="45.3" y2="1"/><circle class="cls-2" cx="34.2" cy="33.5" r="5.2"/><path class="cls-3" d="M33.7,28.7c.4.4-.2,1.8-1.5,3s-2.6,1.9-3,1.5.2-1.8,1.5-3S33.3,28.3,33.7,28.7Z"/><circle class="cls-2" cx="22.5" cy="21.9" r="5.2"/><path class="cls-4" d="M22.1,17c.4.4-.2,1.8-1.5,3s-2.6,1.9-3,1.5.2-1.8,1.5-3S21.6,16.6,22.1,17Z"/><circle class="cls-5" cx="34.2" cy="21.9" r="5.2"/><path class="cls-6" d="M33.7,17c.4.4-.2,1.8-1.5,3s-2.6,1.9-3,1.5.2-1.8,1.5-3S33.3,16.6,33.7,17Z"/></g></g></g></svg>