<?xml version="1.0" encoding="utf-8"?>
<!-- Generator: Adobe Illustrator 26.1.0, SVG Export Plug-In . SVG Version: 6.00 Build 0)  -->
<svg version="1.1" xmlns="http://www.w3.org/2000/svg" xmlns:xlink="http://www.w3.org/1999/xlink" x="0px" y="0px"
	 viewBox="0 0 161.9 92.9" style="enable-background:new 0 0 161.9 92.9;" xml:space="preserve">
<style type="text/css">
	.st0{display:none;}
	.st1{display:inline;fill:#F9F9FC;}
	.st2{fill:#E6E6E6;}
	.st3{display:inline;fill:#E6E6E6;}
	.st4{font-family:'MVBoli';}
	.st5{font-size:28.4784px;}
	.st6{font-size:18.4745px;}
</style>
<g id="Layer_2" class="st0">
	<rect x="-6.4" y="-2.8" class="st1" width="171.6" height="98"/>
</g>
<g id="Layer_1">
	<g id="Layer_2_00000129205402034181857370000012147675686195955110_">
		<g id="Layer_1-2">
			<path class="st2" d="M89,22.9c-6.9-3.5-13.5-8.6-19.7-12.4l-1.6-0.9L66,8.8c-0.4-0.2-1.2-0.6-1.9-0.6c-0.3,0-1.4,0.1-2,0.5
				c-0.5,0.3-0.9,0.7-1.2,1.2l-2.9,4.7l-3,4.8c-4.1,6.3-8.1,12.6-12.3,18.8l-6.2,9.4l-1.6,2.4l-0.7,1.1c-0.2,0.2-0.2,0.5-0.3,0.7
				c-0.2,0.9-0.5,2.2,0,3.3l1.6,1.5c7.9,5.7,12.8,8.5,20.9,14l6,3.9l4.2,2.6l3.7,2.5l2.2,1.5l1,0.7l1,0.7l0.5,0.4l0.4,0.3
				c1,0.7,1.2,0.8,1.2,0.8l0.4,0.3c0.4,0.2,0.5,0.3,1.2,0.4c0.3,0,1,0,1.3-0.2c0.3-0.2,0.6-0.5,0.7-0.6c0.2-0.2,0.4-0.5,0.6-0.6
				l0.3-0.4c0.1-0.1,0.5-0.7,0.6-0.8l0.8-1.1c1.7-2.3,1.6-2.1,3-4c1.5-2.1,2.8-4,4.3-6.1c1.6-2.2,3.1-4.4,4.6-6.7
				c1.5-2.1,3.5-4.9,5.1-7.3l0.1,0.1c-1.3,2.4-2.5,4.8-3.8,7.1c-1.3,2.3-2.7,4.6-4,6.9s-2.8,4.6-4.1,6.8c-1.4,2.2-2.9,4.5-4.3,6.7
				l-0.2,0.3c0.1-0.1,0.1-0.1,0,0L83,84.7c-0.1,0.1-0.2,0.3-0.4,0.5c-0.3,0.3-0.6,0.6-0.9,0.9c-0.7,0.5-1.4,0.8-2.2,1.1
				c-0.9,0.2-1.8,0.3-2.6,0.1l-0.4-0.1c-0.2-0.1-0.4-0.2-0.6-0.3l-0.5-0.3L74.6,86l-6.1-3.8l-12-7.7c-8.1-5.1-16-10.3-24-15.4
				L32.5,59l-0.1-0.2c-1.1-0.9-1.9-2.2-2.2-3.5c-0.4-1.4-0.4-2.9,0.1-4.2c0.2-0.6,0.5-1.3,0.8-1.9l0.9-1.3l1.5-2.3l6.2-9.4
				c4.1-6.3,8.3-12.5,12.5-18.7l6.3-9.4c0.8-1.1,1.7-2,3-2.5c0.6-0.3,1.4-0.5,2.3-0.4c0.7,0,1.5,0.1,2.1,0.4
				c0.8,0.4,1.4,0.6,1.9,0.9l1.2,0.8L71,8.8c6,4.7,11.9,9.5,17.7,13.9L89,22.9z"/>
			<path class="st2" d="M54.8,9.4c-2.5,0.7-3.7,3.3-5,5.4s-2.5,4.4-3.8,6.5c-2.6,4.3-5.5,8.4-8.1,12.7c-2.6,4.3-7.7,11.7-10.4,15.9
				L26,53.1c-0.5,1.2-0.3,3.6,0.6,4.6l1.6,1.6l9.4,6.3l11.3,7.5c3.8,2.5,7.5,5,11.2,7.7c1.9,1.4,3.7,2.6,5.5,4
				c0.8,0.6,1.8,1.5,2.7,1.7c0.4,0.3,0.9,0.4,1.4,0.4s1.1-0.1,1.6-0.2l0,0.1c-0.5,0.3-1,0.5-1.6,0.6c-0.3,0.1-0.6,0.1-0.9,0.1
				c-0.2,0-0.3,0-0.5-0.1c-0.1,0-0.2-0.1-0.3-0.1l-0.2-0.1c-1-0.5-2.1-1.1-3-1.7c-2-1.1-4-2.3-5.9-3.4c-3.9-2.4-7.7-4.8-11.5-7.2
				l-11.5-7.4l-11.5-7.4l-0.1-0.1l-0.1-0.1c-1.2-1.1-2.1-2.7-2.2-4.3c-0.1-1.6,0.4-3.2,1.3-4.5l4.1-6.3c2.7-4.2,5.5-8.3,8.3-12.6
				s5.5-8.3,8.4-12.5c1.4-2,3-4.1,4.4-6.1l1.1-1.4c0.4-0.5,0.7-1,1.2-1.5C52.2,9.9,53.4,9.2,54.8,9.4L54.8,9.4z"/>
			<g>
				<polygon class="st2" points="57.2,59.7 153,40.8 153.3,42.4 59.2,61 				"/>
				<polygon class="st2" points="31,66.6 9.7,70.8 20,63.8 18.5,67.3 28.9,65.3 				"/>
			</g>
		</g>
	</g>
	<g class="st0">
		<text transform="matrix(0.9821 -0.1881 0.1881 0.9821 55.6214 56.1657)" class="st3 st4 st5">Tob</text>
		<text transform="matrix(0.9821 -0.1881 0.1881 0.9821 106.7743 48.0668)" class="st3 st4 st6">mate</text>
	</g>
</g>
</svg>
