<svg xmlns="http://www.w3.org/2000/svg" xmlns:xlink="http://www.w3.org/1999/xlink" viewBox="0 0 161.94 92.94"><defs><style>.cls-1{font-size:30.7px;}.cls-1,.cls-6{fill:#b4f1ff;font-family:MVBoli, MV Boli;}.cls-2{fill:url(#linear-gradient);}.cls-3{fill:url(#linear-gradient-2);}.cls-4{fill:url(#linear-gradient-3);}.cls-5{fill:url(#linear-gradient-4);}.cls-6{font-size:26.31px;}</style><linearGradient id="linear-gradient" x1="18.25" y1="55.94" x2="94.72" y2="39.85" gradientUnits="userSpaceOnUse"><stop offset="0" stop-color="#aafffb"/><stop offset="0.19" stop-color="#a1f6fb"/><stop offset="0.51" stop-color="#87ddfd"/><stop offset="0.92" stop-color="#5eb4ff"/><stop offset="1" stop-color="#55abff"/><stop offset="1" stop-color="#54aafe"/><stop offset="1" stop-color="#368ed9"/><stop offset="1" stop-color="#1e78bc"/><stop offset="1" stop-color="#0d68a8"/><stop offset="1" stop-color="#035e9b"/><stop offset="1" stop-color="#005b97"/><stop offset="1" stop-color="#0075be"/><stop offset="1" stop-color="#00609b"/><stop offset="1" stop-color="#004977"/><stop offset="1" stop-color="#003557"/><stop offset="1" stop-color="#00253b"/><stop offset="1" stop-color="#001725"/><stop offset="1" stop-color="#000d14"/><stop offset="1" stop-color="#000509"/><stop offset="1" stop-color="#000102"/><stop offset="1"/></linearGradient><linearGradient id="linear-gradient-2" x1="9.67" y1="58.11" x2="56.9" y2="48.17" gradientUnits="userSpaceOnUse"><stop offset="0" stop-color="#6aecff"/><stop offset="0.24" stop-color="#73eaff"/><stop offset="0.63" stop-color="#8de4ff"/><stop offset="1" stop-color="#aadeff"/><stop offset="1" stop-color="#8ec8ee"/><stop offset="1" stop-color="#63a7d3"/><stop offset="1" stop-color="#3f8cbe"/><stop offset="1" stop-color="#2376ad"/><stop offset="1" stop-color="#1067a1"/><stop offset="1" stop-color="#045e99"/><stop offset="1" stop-color="#005b97"/><stop offset="1" stop-color="#0075be"/><stop offset="1" stop-color="#00609b"/><stop offset="1" stop-color="#004977"/><stop offset="1" stop-color="#003557"/><stop offset="1" stop-color="#00253b"/><stop offset="1" stop-color="#001725"/><stop offset="1" stop-color="#000d14"/><stop offset="1" stop-color="#000509"/><stop offset="1" stop-color="#000102"/><stop offset="1"/></linearGradient><linearGradient id="linear-gradient-3" x1="70.76" y1="69.86" x2="181.12" y2="69.86" gradientTransform="matrix(0.98, -0.21, 0.21, 0.98, -29.87, 8.95)" gradientUnits="userSpaceOnUse"><stop offset="0" stop-color="#cce0f4"/><stop offset="0.14" stop-color="#c8ddf2"/><stop offset="0.27" stop-color="#bcd5ec"/><stop offset="0.42" stop-color="#a7c8e3"/><stop offset="0.56" stop-color="#8ab5d6"/><stop offset="0.7" stop-color="#659dc5"/><stop offset="0.85" stop-color="#377fb0"/><stop offset="0.99" stop-color="#025d98"/><stop offset="0.99" stop-color="#005b97"/><stop offset="1" stop-color="#7fffeb"/><stop offset="1" stop-color="#85feee"/><stop offset="1" stop-color="#96fdf5"/><stop offset="1" stop-color="#a1fcfb"/><stop offset="1" stop-color="#a8fbfe"/><stop offset="1" stop-color="#aafbff"/></linearGradient><linearGradient id="linear-gradient-4" x1="15.62" y1="68.03" x2="40.17" y2="68.03" xlink:href="#linear-gradient-3"/></defs><g id="Layer_2" data-name="Layer 2"><g id="Layer_1-2" data-name="Layer 1"><text class="cls-1" transform="translate(43.88 58.33) rotate(-11.88)">Tob</text><path class="cls-2" d="M83.75,19.64A233.46,233.46,0,0,1,61.16,7.86L58.43,6.25l-1.36-.81a4.83,4.83,0,0,0-.92-.38,1.67,1.67,0,0,0-1.31.08A3.61,3.61,0,0,0,53.53,6.4l-3.26,5.32-3.37,5.4c-4.5,7.18-9,14.38-13.55,21.51L26.51,49.35l-1.73,2.71L24,53.26a3.92,3.92,0,0,0-.34.79,2.69,2.69,0,0,0,.84,2.8l-.33-.24c9,5.87,18.06,11.68,27,17.59L64.7,83.06l6.74,4.43.84.56.21.14.11.06.05,0,0,0-.07,0c-.22-.12-.21-.09-.23-.1h0a2.34,2.34,0,0,0,1-.06,3.11,3.11,0,0,0,1.07-.44,2.24,2.24,0,0,0,.41-.35,3,3,0,0,0,.21-.25l.14-.19a5.48,5.48,0,0,1,.36-.44l-.26.33c1.67-2.51,3.35-5,5.08-7.47s3.44-5,5.19-7.4S89.15,67,91,64.6s3.65-4.81,5.56-7.16l.2.13c-1.34,2.71-2.75,5.38-4.19,8s-2.9,5.29-4.4,7.9-3,5.22-4.55,7.8S80.48,86.46,78.89,89l-.25.33c.12-.13.09-.11,0,0l-.15.22c-.12.17-.26.36-.41.54a6.1,6.1,0,0,1-1.06,1,7.11,7.11,0,0,1-2.56,1.26,6.8,6.8,0,0,1-3,.17l-.48-.11a3.2,3.2,0,0,1-.69-.29l-.53-.33L69,91.27,62.14,87l-13.71-8.5c-9.14-5.65-18.21-11.41-27.32-17.11l-.17-.1-.17-.15a8.53,8.53,0,0,1-2.6-3.93,8.42,8.42,0,0,1,0-4.77,9.48,9.48,0,0,1,.91-2.12L20,48.87l1.69-2.64,6.86-10.68c4.55-7.15,9.24-14.2,13.86-21.3l7-10.77A8.59,8.59,0,0,1,52.75.57,6.43,6.43,0,0,1,55.24,0a7.31,7.31,0,0,1,2.39.37,9.35,9.35,0,0,1,2,.93l1.32.89L63.56,4A236,236,0,0,1,83.88,19.44Z"/><path class="cls-3" d="M45.49,4.76C42.64,5.58,42,8.59,40.56,11s-2.76,5-4.22,7.4c-2.93,4.87-6,9.64-9,14.47s-6,9.63-9.09,14.41l-4.57,7.19a4,4,0,0,0,.48,5.43L14,59.77l12.9,8.36,12.87,8.43c4.28,2.81,8.59,5.59,12.8,8.5,2.12,1.46,4.21,2.94,6.28,4.46,1,.76,2.06,1.53,3.08,2.31a2.3,2.3,0,0,0,1.57.46A6.18,6.18,0,0,0,65.31,92l.06.13a6.2,6.2,0,0,1-1.85.72,5,5,0,0,1-1,.08,2.18,2.18,0,0,1-.55-.09,1.08,1.08,0,0,1-.32-.13l-.21-.11c-1.14-.59-2.28-1.2-3.4-1.82Q54.63,88.93,51.31,87c-4.42-2.6-8.75-5.33-13.11-8L25.15,70.82l-13-8.19-.1-.06-.1-.08a7.3,7.3,0,0,1-2.54-4.8,7.78,7.78,0,0,1,1.42-5.14L15.4,45.4c3-4.78,6.12-9.52,9.22-14.27s6.13-9.52,9.31-14.21Q36.32,13.4,38.86,10l1.29-1.7c.44-.55.85-1.15,1.37-1.73a5.16,5.16,0,0,1,4-1.93Z"/><polygon class="cls-4" points="53.56 61.81 161.55 39.08 161.94 40.94 55.89 63.26 53.56 61.81"/><polygon class="cls-5" points="24.02 69.99 0 75.05 11.56 66.88 9.95 70.99 21.63 68.53 24.02 69.99"/><text class="cls-6" transform="translate(96.55 50.23) rotate(-11.88)">mate</text></g></g></svg>